<?xml version="1.0" encoding="utf-8"?>
<!-- Generator: Adobe Illustrator 14.0.0, SVG Export Plug-In . SVG Version: 6.00 Build 43363)  -->
<!DOCTYPE svg PUBLIC "-//W3C//DTD SVG 1.1//EN" "http://www.w3.org/Graphics/SVG/1.1/DTD/svg11.dtd">
<svg version="1.1" id="Layer_1" xmlns="http://www.w3.org/2000/svg" xmlns:xlink="http://www.w3.org/1999/xlink" x="0px" y="0px"
	 width="20px" height="20px" viewBox="22.52 42.52 20 20" enable-background="new 22.52 42.52 20 20" xml:space="preserve">
<g>
	<path fill="#FFFFFF" d="M35.659,51.521c0,0,2.979-1.086,2.576-4.828c-0.362-3.866-5.836-3.825-6.077-3.866
		c-0.241-0.04-8.011,0-8.011,0s0.04,19.203,0.001,19.401c0.017-0.121,9.216-0.08,9.216-0.08s5.721-0.619,6.118-5.435
		C39.804,52.81,36.834,52.023,35.659,51.521z M29.06,46.41h2.415c0,0,1.932,0,1.932,2.08s-1.771,1.905-1.851,2.026
		c-0.081,0.121-2.496,0-2.496,0S29.1,46.41,29.06,46.41z M31.555,58.688c-0.081,0.121-2.496,0-2.496,0s0.04-4.911,0-4.911h2.415
		c0,0,3.341-0.015,3.341,2.481C34.815,58.969,31.635,58.566,31.555,58.688z"/>
	<path fill="#FFFFFF" d="M24.147,62.229L24.147,62.229C24.147,62.229,24.147,62.229,24.147,62.229z"/>
</g>
</svg>
