<svg xmlns="http://www.w3.org/2000/svg" viewBox="0 0 829.39 1005.83"><defs><style>.f732a81b-483f-4d81-adc4-4c62b0d4fcb0{isolation:isolate;}.b2fc4655-8a05-4496-a478-9274114a3ccd{fill:#f7a93e;}.be705275-8a96-4d36-b38b-cd5d924d40e0{fill:#51c3e4;}.b81e7ba0-2cdf-4956-9f7a-3f896c47805b{fill:#6ecd78;}.b81e7ba0-2cdf-4956-9f7a-3f896c47805b,.bb2d4e74-ffd0-43e6-a647-7a774520381d{mix-blend-mode:multiply;}.bb2d4e74-ffd0-43e6-a647-7a774520381d{fill:#fb538f;}</style></defs><g class="f732a81b-483f-4d81-adc4-4c62b0d4fcb0"><g id="b3d43752-3176-4f0a-82df-51486e287d57" data-name="Слой 1"><polygon class="b2fc4655-8a05-4496-a478-9274114a3ccd" points="411.07 578.7 63.52 463.1 62.29 76.66 410.87 195.18 411.07 578.7"/><polygon class="be705275-8a96-4d36-b38b-cd5d924d40e0" points="487.82 501.84 829.07 383.24 829.39 0 487.82 118.68 487.82 501.84"/><polygon class="b81e7ba0-2cdf-4956-9f7a-3f896c47805b" points="411.07 578.7 759.53 459.98 759.85 76.65 410.87 195.18 411.07 578.7"/><polygon class="bb2d4e74-ffd0-43e6-a647-7a774520381d" points="347.71 640.84 0 520.26 1.4 138.9 344.9 255.28 347.71 640.84"/><path d="M184.66,711.06h32.93v96.29H248V711.06H281v96.29h30.41V711.06H344.3V837H184.66Z" transform="translate(-124.96 -15.9)"/><path d="M379.21,837v-126H412v47.69h2.34c32.21,0,30.59-24.11,30.59-47.69H478c0,25.74.72,49.49-24.3,65.51L487.92,832v5H452.1l-27.71-48.77A73,73,0,0,1,412,789v48Z" transform="translate(-124.96 -15.9)"/><path d="M501.41,774.23c0-87.11,129.23-87.11,129.23,0C630.64,861.52,501.41,861.52,501.41,774.23Zm96.29,0c0-45.35-63.17-45.35-63.17,0C534.53,820,597.7,820,597.7,774.23Z" transform="translate(-124.96 -15.9)"/><path d="M673.29,837h-31.5v-4.68l56.7-122.92h13.86l56.87,122.92V837h-31.5l-32.39-73.79Z" transform="translate(-124.96 -15.9)"/><path d="M868.74,821.21H819.07L811.69,837h-31.5v-4.68l56.7-122.92h13.85l56.88,122.92V837h-31.5Zm-25-60.66-14.22,33.12H858.3Z" transform="translate(-124.96 -15.9)"/><path d="M404,980.7c.18,8.28,5.58,12.41,14.22,12.41,8.81,0,13.67-6.65,13.85-15.11-.18-18.18-18.17-17.46-31.85-16.92v-4.32l16.74-34.92H380.56V893.23h80.09v4.68l-23.22,42.47c20,5,25.74,21.24,25.74,37.44.18,21.41-15.12,43.91-44.27,43.91-9.54,0-16.38-2-22.5-5.4a40.35,40.35,0,0,1-20.7-35.63Z" transform="translate(-124.96 -15.9)"/><path d="M497,1020.47l26.82-45.53c-26.64,2-43.91-16.38-43.91-40.32,0-29.69,20.15-43.19,47.87-43.19,27.54,0,48.41,13.5,48.41,43.19,0,8.64-1.62,17.46-6.65,24.84l-36.72,61Zm14.94-85.85c0,9.18,6.3,15.84,15.84,15.84,10.44,0,15.84-6.12,15.84-15.84,0-8.82-5.94-15.66-15.84-15.66C518.24,919,511.94,925.8,511.94,934.62Z" transform="translate(-124.96 -15.9)"/><path d="M694.08,934.26v44.1c0,27.53-21.24,43.37-47.34,43.37-25.55,0-47-15.84-47-43.37v-44.1c0-27.53,21.42-43.37,47-43.37C672.84,890.89,694.08,906.73,694.08,934.26Zm-30.42,43.38V934.8c0-9.9-7.38-15.12-16.92-15.12-9.18,0-16.38,5.22-16.38,15.12v42.84c0,10.26,7.2,15.47,16.38,15.47C656.28,993.11,663.66,987.9,663.66,977.64Z" transform="translate(-124.96 -15.9)"/></g></g></svg>